<svg width="18" height="18" viewBox="0 0 18 18" fill="none" xmlns="http://www.w3.org/2000/svg">
<path d="M17 10.0002L1 10.0002C0.447715 10.0002 0 9.55247 0 9.00018C0 8.4479 0.447716 8.00018 1 8.00018L17 8.00018C17.5523 8.00018 18 8.4479 18 9.00018C18 9.55247 17.5523 10.0002 17 10.0002Z" fill="white"/>
<path d="M8 17.0002L8 1.00018C8 0.447898 8.44772 0.000183105 9 0.000183105C9.55228 0.000183105 10 0.447899 10 1.00018L10 17.0002C10 17.5525 9.55228 18.0002 9 18.0002C8.44772 18.0002 8 17.5525 8 17.0002Z" fill="white"/>
</svg>
